<svg xmlns="http://www.w3.org/2000/svg" viewBox="0 0 419.65 419.65"><defs><style>.cls-1{fill:#fff;}.cls-2{fill:#d3d3d3;}.cls-3{fill:#f64b30;}</style></defs><title>finallogotest15</title><g id="Layer_2" data-name="Layer 2"><rect class="cls-1" x="61.46" y="61.46" width="296.74" height="296.74" transform="translate(-86.91 209.83) rotate(-45)"/></g><g id="Layer_1" data-name="Layer 1"><path class="cls-2" d="M108.83,214.5q15.43-15.43,32.91-6l6.33-39,13.38,13.38-6.07,35.86,13.82,13.82,21-21,10.53,10.53-62.35,62.35-23.19-23.19q-14.27-14.27-15.61-25.24T108.83,214.5Zm22.83,5.17q-6-.45-12.09,5.66T114.49,237q1,5.57,9.5,14l13.38,13.38,22.3-22.3L146.56,229Q137.64,220.12,131.66,219.67Z"/><path class="cls-2" d="M218.46,204.41l-10.53-10.53,62.35-62.34L286.7,148l-20.34,58,58-20.34,16.32,16.32-62.35,62.35-10.53-10.53,48.7-48.7-65,21.5-5.89-5.89,21.59-64.93Z"/><path class="cls-3" d="M100.42,206.09q15.43-15.43,32.91-6l6.33-39L153,174.52,147,210.37,160.8,224.2l21-21,10.53,10.53-62.35,62.35-23.19-23.19q-14.27-14.27-15.61-25.24T100.42,206.09Zm22.83,5.17q-6-.45-12.08,5.66t-5.08,11.69q1,5.57,9.5,14L129,256l22.3-22.3-13.11-13.11Q129.23,211.71,123.25,211.27Z"/><path class="cls-3" d="M210.06,196l-10.53-10.53,62.35-62.35,16.41,16.41-20.34,58,58-20.34,16.32,16.32L269.9,255.85l-10.53-10.53,48.7-48.7-65,21.5-5.89-5.89,21.59-64.93Z"/></g></svg>