<svg xmlns="http://www.w3.org/2000/svg" viewBox="0 0 249.67 161.39"><defs><style>.cls-1{fill:#fff;}.cls-2{fill:#4a4a4a;}</style></defs><title>finallogotest8</title><g id="Layer_1" data-name="Layer 1"><path class="cls-1" d="M17.83,91.37q15.43-15.43,32.91-6l6.33-39L70.46,59.8,64.39,95.65l13.82,13.82,21-21L109.7,99,47.36,161.39,24.17,138.2Q9.9,123.93,8.56,113T17.83,91.37Zm22.83,5.17q-6-.45-12.09,5.66T23.5,113.89q1,5.57,9.5,14l13.38,13.38L68.67,119,55.56,105.91Q46.65,97,40.67,96.54Z"/><path class="cls-1" d="M127.47,81.28,116.95,70.76,179.29,8.41l16.41,16.41-20.34,58,58-20.34,16.32,16.32-62.35,62.35L176.8,130.6l48.7-48.7-65,21.5-5.89-5.89,21.59-64.93Z"/><path class="cls-2" d="M9.43,83q15.43-15.43,32.91-6l6.33-39L62.05,51.39,56,87.24l13.82,13.82,21-21L101.3,90.63,38.95,153,15.76,129.79Q1.49,115.52.15,104.54T9.43,83Zm22.83,5.17q-6-.45-12.08,5.66t-5.08,11.69q1,5.57,9.5,14L38,132.91l22.3-22.3L47.16,97.5Q38.24,88.58,32.26,88.13Z"/><path class="cls-2" d="M119.06,72.87,108.54,62.35,170.88,0,187.3,16.41,167,74.39l58-20.34,16.32,16.32-62.35,62.35-10.53-10.53,48.7-48.7-65,21.5-5.89-5.89,21.59-64.93Z"/></g></svg>