<svg xmlns="http://www.w3.org/2000/svg" viewBox="0 0 350 350"><defs><style>.cls-1{fill:#fff;}.cls-2{fill:#d3d3d3;}.cls-3{fill:#4400e1;}</style></defs><title>finallogotest2</title><g id="Layer_2" data-name="Layer 2"><circle class="cls-1" cx="175" cy="175" r="175"/></g><g id="Layer_1" data-name="Layer 1"><path class="cls-2" d="M68.17,185.65q15.43-15.43,32.91-6l6.33-39,13.38,13.38-6.07,35.86,13.82,13.82,21-21L160,193.32,97.69,255.66,74.5,232.47Q60.23,218.2,58.89,207.23T68.17,185.65ZM91,190.82q-6-.45-12.09,5.66t-5.08,11.69q1,5.57,9.5,14L96.71,235.6,119,213.3,105.9,200.19Q97,191.27,91,190.82Z"/><path class="cls-2" d="M177.81,175.56,167.28,165l62.35-62.34L246,119.1l-20.34,58,58-20.34L300,173.06l-62.35,62.35-10.53-10.53,48.7-48.7-65,21.5-5.89-5.89,21.59-64.93Z"/><path class="cls-3" d="M59.76,177.24q15.43-15.43,32.91-6l6.33-39,13.38,13.38-6.07,35.85,13.82,13.82,21-21,10.53,10.53L89.28,247.26,66.09,224.06q-14.27-14.27-15.61-25.24T59.76,177.24Zm22.83,5.17q-6-.45-12.08,5.66t-5.08,11.69q1,5.57,9.5,14L88.3,227.19l22.3-22.3L97.49,191.78Q88.57,182.86,82.59,182.41Z"/><path class="cls-3" d="M169.4,167.15l-10.53-10.53,62.35-62.35,16.41,16.41-20.34,58,58-20.34,16.32,16.32L229.25,227l-10.53-10.53,48.7-48.7-65,21.5-5.89-5.89,21.59-64.93Z"/></g></svg>