<?xml version="1.0" encoding="utf-8"?>
<!-- Generator: Adobe Illustrator 21.1.0, SVG Export Plug-In . SVG Version: 6.00 Build 0)  -->
<svg version="1.1" id="Layer_1" xmlns="http://www.w3.org/2000/svg" xmlns:xlink="http://www.w3.org/1999/xlink" x="0px" y="0px"
	 viewBox="0 0 219 141.6" style="enable-background:new 0 0 219 141.6;" xml:space="preserve">
<style type="text/css">
	.st0{fill:#D3D3D3;}
	.st1{fill:#F64B30;}
</style>
<g>
	<path class="st0" d="M15.6,80.1c9-9,18.6-10.8,28.9-5.2l5.6-34.2l11.7,11.7l-5.3,31.5L68.6,96L87,77.6l9.2,9.2l-54.7,54.7
		l-20.3-20.3c-8.3-8.3-12.9-15.7-13.7-22.1S9.4,86.4,15.6,80.1z M35.7,84.7c-3.5-0.3-7,1.4-10.6,5c-3.6,3.6-5.1,7-4.5,10.3
		c0.6,3.3,3.4,7.4,8.3,12.3L40.7,124l19.6-19.6L48.7,92.9C43.5,87.7,39.2,84.9,35.7,84.7z"/>
</g>
<g>
	<path class="st0" d="M111.8,71.3l-9.2-9.2l54.7-54.7l14.4,14.4l-17.8,50.9l50.9-17.8L219,69.1l-54.7,54.7l-9.2-9.2l42.7-42.7
		l-57,18.9l-5.2-5.2l18.9-57L111.8,71.3z"/>
</g>
<g>
	<path class="st1" d="M8.3,72.8c9-9,18.6-10.8,28.9-5.2l5.6-34.2l11.7,11.7l-5.3,31.5l12.1,12.1l18.4-18.4l9.2,9.2l-54.7,54.7
		l-20.3-20.3C5.5,105.5,0.9,98.1,0.1,91.7S2.1,79,8.3,72.8z M28.3,77.3c-3.5-0.3-7,1.4-10.6,5c-3.6,3.6-5.1,7-4.5,10.3
		c0.6,3.3,3.4,7.4,8.3,12.3l11.7,11.7L52.9,97L41.4,85.5C36.1,80.3,31.8,77.6,28.3,77.3z"/>
</g>
<g>
	<path class="st1" d="M104.4,63.9l-9.2-9.2L149.9,0l14.4,14.4l-17.8,50.9l50.9-17.8l14.3,14.3l-54.7,54.7l-9.2-9.2l42.7-42.7
		l-57,18.9l-5.2-5.2l18.9-57L104.4,63.9z"/>
</g>
</svg>
